/* XPM */
static char * battleship_xpm[] = {
"24 24 277 2",
"  	c None",
". 	c #FFFFFF",
"+ 	c #EEFFFF",
"@ 	c #CBFFFF",
"# 	c #ADE9FF",
"$ 	c #9CDCFF",
"% 	c #90D0FF",
"& 	c #9CDAFF",
"* 	c #88CBFF",
"= 	c #83C9FF",
"- 	c #7EC4FF",
"; 	c #63B0FF",
"> 	c #4D9CFF",
", 	c #4D9EFF",
"' 	c #4DA1FF",
") 	c #59A6FF",
"! 	c #6AB2FF",
"~ 	c #74BCFF",
"{ 	c #72BAFF",
"] 	c #7EC6FF",
"^ 	c #8BCEFF",
"/ 	c #92D3FF",
"( 	c #A1E1FF",
"_ 	c #B2EBFF",
": 	c #DAFFFF",
"< 	c #FAFFFF",
"[ 	c #E1FFFF",
"} 	c #CEFFFF",
"| 	c #ADEBFF",
"1 	c #86CEFF",
"2 	c #81C9FF",
"3 	c #8BD0FF",
"4 	c #81C6FF",
"5 	c #97D8FF",
"6 	c #61ADFF",
"7 	c #5CABFF",
"8 	c #59A8FF",
"9 	c #4A9CFF",
"0 	c #6AB5FF",
"a 	c #C4FAFF",
"b 	c #F5FFFF",
"c 	c #F8FFFF",
"d 	c #D3FFFF",
"e 	c #BAF3FF",
"f 	c #97D5FF",
"g 	c #8DD0FF",
"h 	c #92D8FF",
"i 	c #90D3FF",
"j 	c #9ADAFF",
"k 	c #95D5FF",
"l 	c #83CBFF",
"m 	c #7CC1FF",
"n 	c #6DB7FF",
"o 	c #4FA1FF",
"p 	c #5CA8FF",
"q 	c #57A3FF",
"r 	c #65B2FF",
"s 	c #86CBFF",
"t 	c #A3E1FF",
"u 	c #B0EBFF",
"v 	c #E4FFFF",
"w 	c #C1F8FF",
"x 	c #BAF0FF",
"y 	c #9EDFFF",
"z 	c #9EDCFF",
"A 	c #A3DFFF",
"B 	c #77BFFF",
"C 	c #A6E6FF",
"D 	c #BFF8FF",
"E 	c #A1DFFF",
"F 	c #A6E4FF",
"G 	c #92D5FF",
"H 	c #88CEFF",
"I 	c #4A92FF",
"J 	c #63A8FF",
"K 	c #95D8FF",
"L 	c #B7F0FF",
"M 	c #EBFFFF",
"N 	c #DCFFFF",
"O 	c #ABE6FF",
"P 	c #B5EEFF",
"Q 	c #A8E6FF",
"R 	c #B2EEFF",
"S 	c #B5F0FF",
"T 	c #74BFFF",
"U 	c #2F79FF",
"V 	c #2C7CFF",
"W 	c #6FB5FF",
"X 	c #5C9EFF",
"Y 	c #E6FFFF",
"Z 	c #C4FDFF",
"` 	c #3E8BFF",
" .	c #52A3FF",
"..	c #7CBCFF",
"+.	c #D5FFFF",
"@.	c #F3FFFF",
"#.	c #D8FFFF",
"$.	c #C1FAFF",
"%.	c #B7F3FF",
"&.	c #79B7FF",
"*.	c #001B7E",
"=.	c #003BD3",
"-.	c #579CFF",
";.	c #3677F0",
">.	c #88C9FF",
",.	c #DFFFFF",
"'.	c #B5E9FF",
").	c #A3D8FF",
"!.	c #95D3FF",
"~.	c #4079E9",
"{.	c #00208D",
"].	c #000040",
"^.	c #2A6FFA",
"/.	c #4892FF",
"(.	c #1B63F5",
"_.	c #A6DCFF",
":.	c #000559",
"<.	c #00005C",
"[.	c #2779FF",
"}.	c #00169E",
"|.	c #0045E6",
"1.	c #236DFF",
"2.	c #68B2FF",
"3.	c #72BCFF",
"4.	c #002A88",
"5.	c #457CE9",
"6.	c #0039BA",
"7.	c #C4F8FF",
"8.	c #4D95FF",
"9.	c #C9FAFF",
"0.	c #C9FDFF",
"a.	c #F0FFFF",
"b.	c #E9FFFF",
"c.	c #88BAFF",
"d.	c #6F97E6",
"e.	c #000A6F",
"f.	c #000045",
"g.	c #488DFF",
"h.	c #95C1FF",
"i.	c #0C48BC",
"j.	c #CBFDFF",
"k.	c #97D0FF",
"l.	c #B2E4FF",
"m.	c #FDFFFF",
"n.	c #86B0FD",
"o.	c #000043",
"p.	c #1452CE",
"q.	c #00007C",
"r.	c #164DBA",
"s.	c #002ADC",
"t.	c #0F5CF5",
"u.	c #ADE6FF",
"v.	c #86C9FF",
"w.	c #A1DAFF",
"x.	c #B5E4FF",
"y.	c #053EB2",
"z.	c #000A86",
"A.	c #000061",
"B.	c #001BA3",
"C.	c #002CBC",
"D.	c #003ECE",
"E.	c #000074",
"F.	c #144FC6",
"G.	c #ABE9FF",
"H.	c #C6FDFF",
"I.	c #BCF5FF",
"J.	c #0031A1",
"K.	c #00078B",
"L.	c #4077DF",
"M.	c #194FB5",
"N.	c #00169C",
"O.	c #0040FF",
"P.	c #0057FF",
"Q.	c #002FE9",
"R.	c #000054",
"S.	c #0014B0",
"T.	c #5490FF",
"U.	c #000086",
"V.	c #347CFF",
"W.	c #1159EE",
"X.	c #00001E",
"Y.	c #000C9E",
"Z.	c #000097",
"`.	c #000057",
" +	c #00076F",
".+	c #3965BF",
"++	c #3B6FD5",
"@+	c #0045DC",
"#+	c #0020CB",
"$+	c #0048F3",
"%+	c #0016B2",
"&+	c #00029A",
"*+	c #1663FF",
"=+	c #2763D5",
"-+	c #023495",
";+	c #0C48C4",
">+	c #2363E9",
",+	c #A1BCF5",
"'+	c #000F90",
")+	c #0019C4",
"!+	c #00008B",
"~+	c #000048",
"{+	c #00000A",
"]+	c #000002",
"^+	c #000000",
"/+	c #000779",
"(+	c #599AFF",
"_+	c #0A4FDC",
":+	c #0A59F5",
"<+	c #1E61E9",
"[+	c #1E61E4",
"}+	c #0043CB",
"|+	c #4D92FF",
"1+	c #0034C1",
"2+	c #0019A3",
"3+	c #0039BC",
"4+	c #2063E9",
"5+	c #0025DA",
"6+	c #00009A",
"7+	c #000063",
"8+	c #00004A",
"9+	c #00002A",
"0+	c #00000F",
"a+	c #000020",
"b+	c #002CAB",
"c+	c #0745C4",
"d+	c #0023A3",
"e+	c #000007",
"f+	c #000034",
"g+	c #000059",
"h+	c #5E9EFF",
"i+	c #316FE9",
"j+	c #0014BC",
"k+	c #00004F",
"l+	c #000014",
"m+	c #000025",
"n+	c #00003E",
"o+	c #000088",
"p+	c #0007A8",
"q+	c #000FB0",
"r+	c #00007E",
"s+	c #79B2FF",
"t+	c #0020CE",
"u+	c #0005A1",
"v+	c #00008D",
"w+	c #000083",
"x+	c #000081",
"y+	c #000077",
"z+	c #000068",
"A+	c #000092",
"B+	c #0007A6",
"C+	c #003BE9",
"D+	c #196AFF",
"E+	c #3981FF",
"F+	c #2372FF",
"G+	c #000597",
"H+	c #0011A8",
"I+	c #0031EB",
"J+	c #000095",
"K+	c #000079",
"L+	c #00006D",
"M+	c #00006A",
"N+	c #00029C",
"O+	c #001EC6",
"P+	c #000CAD",
"Q+	c #00059C",
"R+	c #000011",
"S+	c #00002C",
"T+	c #000031",
"U+	c #000090",
"V+	c #000CAB",
"W+	c #000065",
"X+	c #00004D",
"Y+	c #000052",
"Z+	c #00059E",
"`+	c #0023CE",
" @	c #0039E6",
". + @ # $ % & * = - ; > , ' ) ! ~ { ] ^ / ( _ : ",
"< [ } | 1 2 3 1 4 5 ^ 6 7 8 8 9 , 0 ^ % & | a b ",
"c d @ e f g h i j k * l m ~ n o p q r s % t u [ ",
"v w w x e y z y & A ( t j * - ~ { { B k C | e [ ",
". . c w @ D # E t F t E G H B I J K 0 y L w F v ",
"M . . N O P Q j t R S 5 y 3 T U V W X w v N Y . ",
". . . . . | F Z @ d } u K 2 % `  .y ..R @ +.N @.",
": . . . . . } #.N $.%.( / &.*.=.r -.;.>.j ,.} #.",
"@.'.).. . M d d $.u z * !.~.{.].^./.(.! ! 5 4 G ",
". v _.. + . : : . + . b ^ :.<.[.}.|.1.2.E G 3.K ",
". . . . . . . . . . . . . . 4.5.6.7.8.W G s l S ",
"b 9.0.M a.. @.b.N b.. . c.d.e.f.g.h.i.j.R [ . . ",
". k.l.. c . m.,.+ < : m.n.o.p.q.r.s.t.u.^ v.@ a.",
". w.c x.. . . . . < + y.z.A.B.C.D.E.F.!.G.H.I.: ",
"< J.K.E.L.,.. . . M.N.O.P.Q.R.S.T.U.V.W.$.D @.b.",
". X.Y.Z.`.X. +.+++. @+#+U.$+%+&+*+=+-+;+R.>+. . ",
". ,+'+)+!+~+{+]+^+^+o./+(+p _+:+<+[+}+|+1+2+3+. ",
". . 4+5+6+7+<.8+9+0+^+^+^+^+a+7+b+c+d+e+f+g+g+h+",
"Y c i+j+!+<.7+k+].o.k+].X.l+m+n+7+o+p+q+r+R.!+E.",
". . s+t+u+r+v+U.v+w+w+x+y+<.z+U.U.A+B+C+D+E+F+z+",
"!+G+H+I+j+u+6+A+J+K+y+E.L+<.R.<.E.M+L+E.M+8+]+N+",
"O+P+Q+g+R+^+^+^+^+^+^+^+^+^+^+^+e+R+o.X.g+K+J+P+",
"8+m+^+^+^+^+e+f+S+9+X.`.].T+X.7+A.].A.!+U+v+A+6+",
"V+U+L+f.Q+W+<.o.X+k+f.W+M+<.Y+X+<.`.k+Y+Z+q+`+ @"};
